<?xml version="1.0" encoding="utf-8"?>
<!-- Generator: Adobe Illustrator 16.0.0, SVG Export Plug-In . SVG Version: 6.00 Build 0)  -->
<!DOCTYPE svg PUBLIC "-//W3C//DTD SVG 1.1//EN" "http://www.w3.org/Graphics/SVG/1.1/DTD/svg11.dtd">
<svg version="1.1" id="Layer_1" xmlns="http://www.w3.org/2000/svg" xmlns:xlink="http://www.w3.org/1999/xlink" x="0px" y="0px"
	 width="886.387px" height="644.967px" viewBox="0 0 886.387 644.967" enable-background="new 0 0 886.387 644.967"
	 xml:space="preserve">
<rect x="196.997" y="254.893" fill-rule="evenodd" clip-rule="evenodd" fill="#FCFBFB" width="378.39" height="117.953"/>
<g>
	<path fill-rule="evenodd" clip-rule="evenodd" fill="#C2C2C2" d="M834.678,270.607c9.711,3.456,18.01,6.279,26.213,9.359
		c13.439,5.047,22.836,19.231,23.667,33.596c0.819,14.16-4.767,25.976-11.938,37.343c-9.188,14.564-20.043,27.749-33.524,38.619
		c-16.604,13.387-38.509,14.893-55.419,0.777c-5.295-4.42-8.336-10.736-12.156-16.362c-2.232-3.288-4.201-6.753-7.216-10.105
		c0,3.333,0.024,6.665-0.005,9.997c-0.097,10.846-0.229,21.779-6.594,31.199c-7.691,11.383-18.28,18.409-32.323,18.789
		c-20.661,0.559-39.566-6.227-57.854-14.958c-4.33-2.067-8.515-3.41-13.352-3.146c-5.15,0.283-10.337,0.244-15.492,0.018
		c-6.243-0.275-12.116,0.755-18.054,2.824c-9.609,3.35-19.166,2.159-28.698-1.315c-6.452-2.352-12.715-2.897-19.053,2.114
		c-15.83,12.518-34.182,18.258-54.379,17.41c-4.758-0.2-6.111,1.147-6.27,5.957c-0.709,21.599-18.524,39.801-39.998,42.274
		c-26.519,3.054-49.649-13.636-53.428-39.405c-0.827-5.639-0.263-11.307-0.494-16.956c-0.045-1.097,0.549-2.544-0.713-3.188
		c-1.347-0.686-1.989,0.808-2.847,1.466c-14.706,11.304-30.886,14.356-48.382,7.984c-11.768-4.286-20.316-12.459-25.396-23.967
		c-1.581-3.582-2.676-4.754-5.924-1.27c-15.494,16.611-35.364,24.286-57.367,27.213c-21.555,2.867-42.515,1.259-62.027-9.404
		c-19.465-10.637-31.987-27.068-39.403-47.69c-0.609-1.694-1.265-3.371-2.336-6.216c-4.088,12.843-7.87,24.59-11.564,36.364
		c-4.236,13.499-8.427,26.979-16.034,39.127c-9.14,14.597-22.027,23.698-38.729,27.626c-16.659,3.919-33.112,4.439-49.467-1.723
		c-17.354-6.538-30.292-24.553-29.576-42.895c0.751-19.207,10.067-33.074,27.931-40.57c4.279-1.795,4.749-3.253,2.636-7.316
		c-7.602-14.62-14.806-29.447-22.096-44.227c-8.098-16.417-16.598-32.658-24.067-49.357c-9.948-22.241-5.623-50.188,17.673-64.576
		c23.302-14.393,53.343-6.537,65.714,17.832c3.981,7.841,8.186,15.568,12.72,24.166c1.68-5.308,2.972-9.868,4.562-14.32
		c4.164-11.658,10.131-22.091,20.751-29.158c13.776-9.167,28.365-9.324,43.284-3.434c8.194,3.235,15.33,8.119,20.039,15.821
		c2.303,3.767,4.29,1.149,5.993-0.208c8.987-7.156,18.954-12.533,30.03-15.331c28.512-7.204,56.336-6.732,82.188,9.403
		c7.475,4.666,14.211,10.359,19.394,17.754c1.963-1.545,1.074-3.325,1.134-4.821c0.508-12.625-0.73-25.273,0.929-37.899
		c2.832-21.544,21.909-38.349,43.791-39.085c17.455-0.587,31.583,5.078,41.915,19.421c4.731,6.567,6.27,14.161,7.325,21.971
		c0.693,5.126,1.035,10.242,0.902,15.404c-0.025,0.956-0.33,2.136,0.615,2.769c1.101,0.736,1.773-0.382,2.541-0.931
		c16.616-11.892,34.131-13.823,52.562-4.588c1.881,0.942,3.433,0.698,5.207,0.091c26.72-9.143,52.063-5.69,76.11,8.582
		c5.721,3.396,11.013,7.508,15.379,12.586c2.392,2.782,3.209,2.169,3.865-1.041c2.307-11.287,7.292-21.135,16.631-28.181
		c11.999-9.052,25.271-10.292,39.231-5.285c5.476,1.964,10.829,4.269,16.282,6.299c0.986,0.367,2.233,1.519,3.206,0.434
		c1.193-1.333-0.236-2.402-0.91-3.466c-13.071-20.66-26.227-41.268-39.182-62c-4.39-7.025-9.839-13.548-12.128-21.696
		c-5.14-18.291,3.256-37.49,21.051-47.231c22.431-12.279,46.52-19.311,71.96-22.136c11.692-1.298,22.817-1.061,33.333,4.958
		c12.226,6.999,19.028,17.698,20.116,31.406c1.72,21.675,3.396,43.363,4.399,65.099c0.427,9.247,1.624,18.477,1.97,28.466
		c4.057-3.271,6.06-7.477,8.956-10.909c5.636-6.679,9.834-14.503,17.635-19.41c15.086-9.49,35.41-8.113,48.768,3.529
		c17.779,15.498,30.587,34.504,39.826,55.991c8.389,19.508,4.907,36.88-9.502,50.664c-7.393,7.072-17.147,8.408-26.309,11.208
		C840.71,269.415,838.416,269.773,834.678,270.607z M339.479,224.071c0,6,0.067,12-0.047,17.998
		c-0.028,1.501,0.997,3.787-1.166,4.313c-1.534,0.374-2.245-1.629-3.112-2.836c-7.105-9.885-15.883-17.966-26.714-23.544
		c-20.675-10.648-42.51-11.937-65.02-7.673c-14.513,2.749-27.693,8.272-38.915,17.983c-5.192,4.492-4.87,4.5-8.974-1.021
		c-10.341-13.908-24.203-20.212-41.548-18.556c-15.561,1.486-25.739,10.435-32.885,23.661c-3.993,7.391-6.136,15.426-8.59,23.373
		c-0.637,2.062-0.3,5.419-3.076,5.635c-2.438,0.189-2.683-3.018-3.651-4.825c-4.481-8.365-8.771-16.834-13.242-25.205
		c-1.722-3.224-3.634-6.401-6.297-8.95c-19.932-19.075-52.453-15.695-67.744,7.554c-10.18,15.478-9.915,32.29-2.118,48.564
		c15.109,31.537,30.859,62.766,46.339,94.125c2.929,5.934,2.811,6.375-3.068,8.66c-17.903,6.955-27.622,20.232-27.955,39.182
		c-0.281,16.057,8.273,30.659,25.484,38.45c15.331,6.939,31.184,6.693,47.284,3.156c13.183-2.896,24.651-8.362,33.553-19.028
		c11.343-13.59,16.175-29.998,21.39-46.32c4.252-13.309,8.552-26.603,12.824-39.904c0.353-1.1,0.518-2.494,1.984-2.497
		c1.493-0.002,1.639,1.486,1.979,2.532c1.077,3.316,1.938,6.707,3.083,9.998c11.978,34.465,41.589,55.637,78.079,56.053
		c12.718,0.146,25.178-1.057,37.386-4.889c16.535-5.19,31.281-13.03,42.175-26.975c0.813-1.039,1.605-2.371,3.15-2.064
		c1.761,0.348,1.279,2.119,1.633,3.303c6.444,21.554,29.065,34.706,50.947,29.73c9.376-2.132,17.456-6.33,23.854-13.619
		c0.915-1.043,1.82-2.836,3.591-2.027c1.621,0.74,1.229,2.568,1.237,4.039c0.028,4.833,0.138,9.669,0.008,14.498
		c-0.716,26.704,20.751,45.526,45.25,45.284c19.716-0.194,42.393-14.868,42.686-42.266c0.057-5.21,1.501-6.459,6.491-6.211
		c20.868,1.04,39.978-4.261,56.192-17.747c6.672-5.548,13.311-4.955,20.354-2.072c8.467,3.467,17.474,4.949,25.823,1.875
		c9.723-3.578,19.412-3.631,29.378-3.956c8.737-0.285,16.405,1.74,24.326,5.538c16.717,8.018,34.297,13.71,53.196,13.448
		c19.013-0.262,34.888-16.671,35.54-35.642c0.303-8.807,0.681-17.606,0.758-26.42c0.011-1.225-0.611-3.006,1.156-3.389
		c1.322-0.288,1.762,1.277,2.374,2.23c4.405,6.857,8.955,13.627,13.172,20.598c11.761,19.445,35.521,25.245,53.991,12.163
		c21.369-15.135,37.428-35.046,47.032-59.437c7.413-18.829-0.249-41.378-21.15-48.789c-9.094-3.224-18.26-6.243-27.382-9.385
		c-1.058-0.364-2.549-0.517-2.67-1.888c-0.162-1.838,1.556-1.881,2.781-2.202c4.98-1.305,9.963-2.611,14.968-3.817
		c9.162-2.208,18.049-5.107,24.437-12.51c10.215-11.839,12.684-25.362,7.272-40.009c-8.334-22.56-21.417-42.11-39.321-58.118
		c-18.047-16.136-43.629-12.618-56.44,5.803c-5.31,7.635-11.187,14.875-16.79,22.307c-0.773,1.026-1.24,2.701-2.933,2.05
		c-1.463-0.563-1.374-2.134-1.377-3.473c-0.018-9.982-1.403-19.885-1.867-29.824c-0.999-21.405-2.88-42.742-4.332-64.111
		c-0.323-4.749-0.739-9.589-2.866-14.071c-7.173-15.113-19.595-22.707-35.788-22.775c-22.71-0.096-44.354,5.992-65.318,14.363
		c-10.369,4.14-20.481,8.789-28.334,17.245c-10.372,11.168-12.748,28.914-4.853,41.585c17.151,27.525,34.518,54.918,51.766,82.384
		c0.9,1.434,3.174,2.942,1.631,4.656c-1.442,1.602-3.373-0.238-5.008-0.875c-7.902-3.077-15.71-6.42-23.702-9.243
		c-12.579-4.444-24.433-3.182-35.418,4.956c-10.726,7.944-14.582,19.393-16.946,31.708c-0.25,1.298,0.013,2.947-1.452,3.464
		c-1.84,0.65-2.537-1.115-3.425-2.252c-3.292-4.217-6.956-8.094-11.257-11.266c-24.48-18.05-51.186-22.696-80.143-12.931
		c-2.926,0.987-5.301,0.893-8.02-0.611c-7.149-3.954-15.027-5.767-23.067-5.132c-11.571,0.915-21.983,5.041-30.17,13.742
		c-0.758,0.806-1.48,2.057-2.86,1.593c-1.567-0.527-1.522-2.014-1.531-3.349c-0.049-6.999,0.141-14.008-0.177-20.994
		c-0.32-7.05-2.009-13.838-5.973-19.824c-9.376-14.156-22.759-20.055-39.531-19.575c-19.279,0.552-36.074,13.802-40.495,32.511
		C338.836,202.767,339.584,213.445,339.479,224.071z"/>
	<path fill-rule="evenodd" clip-rule="evenodd" fill="#C5302D" d="M580.975,554.497c-5.415,1.565-8.699,0.459-10.223-4.959
		c-1.025-3.646-3.163-6.963-4.447-10.555c-1.074-3.004-2.838-4.084-5.967-3.794c-3.421,0.317-2.541,2.959-2.886,4.851
		c-0.685,3.758-1.52,7.547-1.61,11.34c-0.092,3.798-2.21,3.836-4.893,3.637c-3.507-0.262-1.623-2.771-1.455-4.096
		c1.57-12.363,3.375-24.697,5.002-37.054c0.376-2.858,1.172-4.483,4.595-4.191c4.129,0.353,8.313,0.005,12.471,0.104
		c7.39,0.176,11.008,2.545,12.255,7.854c1.421,6.049-1.486,12.849-7.609,15.19c-4.468,1.709-4.32,3.441-2.36,6.974
		C576.471,544.528,578.599,549.535,580.975,554.497z M564.723,529.875c1.957-0.257,3.924-0.459,5.87-0.78
		c4.467-0.737,6.66-3.596,6.639-7.938c-0.022-4.713-3.664-5.321-7.266-5.724c-8.974-1.004-8.975-0.996-10.316,8.219
		C558.769,529.694,558.769,529.694,564.723,529.875z"/>
	<path fill-rule="evenodd" clip-rule="evenodd" fill="#C5302D" d="M440.223,554.544c-4.819,1.527-8.077,0.496-9.7-4.871
		c-1.197-3.956-3.478-7.572-4.856-11.487c-1.033-2.936-3.015-3.05-5.483-2.976c-3.104,0.093-2.581,2.428-2.862,4.297
		c-0.62,4.112-1.479,8.208-1.768,12.345c-0.253,3.635-2.542,3.256-4.891,3.151c-3.036-0.135-1.682-2.168-1.487-3.613
		c1.711-12.706,3.511-25.4,5.138-38.117c0.348-2.71,1.433-3.694,4.173-3.567c4.323,0.201,8.664-0.03,12.994,0.077
		c7.022,0.174,11.003,2.717,12.079,7.535c1.405,6.285-1.295,13.146-7.381,15.372c-4.912,1.797-4.461,3.724-2.462,7.348
		c2.409,4.363,4.364,8.977,6.49,13.494C440.331,553.797,440.223,554.174,440.223,554.544z M423.889,529.595
		c3.069,0.327,5.703-0.041,8.224-0.946c3.663-1.315,5.004-4.341,4.849-7.884c-0.162-3.704-2.931-4.743-6.186-5.216
		c-9.762-1.416-9.763-1.178-11.535,8.597C418.359,529.009,419.341,530.768,423.889,529.595z"/>
	<path fill-rule="evenodd" clip-rule="evenodd" fill="#C5302D" d="M64.652,554.402c-5.837,2.061-8.817-0.018-10.456-5.261
		c-1.136-3.636-3.172-6.984-4.394-10.6c-1.031-3.051-3.008-3.513-5.77-3.342c-3.05,0.188-2.632,2.52-2.914,4.361
		c-0.605,3.951-1.335,7.909-1.529,11.888c-0.159,3.267-1.729,3.742-4.486,3.621c-3.708-0.163-2.191-2.519-1.958-4.243
		c1.697-12.539,3.512-25.063,5.144-37.609c0.358-2.753,1.554-3.634,4.24-3.511c4.158,0.191,8.332-0.009,12.497,0.069
		c7.251,0.136,11.454,2.739,12.542,7.649c1.367,6.167-1.445,13.154-7.56,15.271c-5.243,1.815-4.083,4.052-2.34,7.419
		C60.095,544.807,62.319,549.604,64.652,554.402z M50.235,515.19c-1.796,0.916-4.953-1.539-5.832,1.795
		c-0.925,3.512-1.156,7.207-1.653,10.827c-0.173,1.261,0.565,1.842,1.733,1.849c3.98,0.021,8.028,0.448,11.828-1.126
		c3.551-1.472,4.858-4.466,4.538-8.07c-0.309-3.482-2.942-4.532-5.983-4.857C53.383,515.448,51.893,515.337,50.235,515.19z"/>
	<path fill-rule="evenodd" clip-rule="evenodd" fill="#C5302D" d="M716.041,544.732c2.488-5.416,5.092-10.783,7.414-16.27
		c1.185-2.799,2.724-4.159,5.963-3.885c3.399,0.287,2.703,2.826,3.121,4.733c1.1,5.004,2.074,10.036,3.387,16.471
		c3.841-6.166,5.599-11.925,8.002-17.346c0.994-2.243,1.813-4.156,4.907-3.86c2.234,0.213,3.058,0.534,1.93,2.921
		c-3.984,8.424-7.903,16.882-11.671,25.404c-1.116,2.526-3.057,2.004-4.989,2.134c-2.396,0.161-2.547-1.501-2.896-3.192
		c-1.21-5.851-2.493-11.686-4.03-18.838c-3.154,6.758-6.009,12.295-8.32,18.05c-1.268,3.155-2.934,4.37-6.304,4.021
		c-3.361-0.348-2.668-3.008-3.052-4.847c-1.495-7.166-2.827-14.37-4.034-21.59c-0.237-1.416-1.815-3.896,1.656-3.988
		c2.341-0.063,4.543-0.396,4.952,3.118c0.648,5.559,1.779,11.06,2.705,16.586C715.201,544.48,715.621,544.606,716.041,544.732z"/>
	<path fill-rule="evenodd" clip-rule="evenodd" fill="#C5302D" d="M288.758,551.833c-0.938,6.697-1.905,12.421-2.478,18.183
		c-0.308,3.091-2.011,3.324-4.403,3.163c-2.969-0.199-1.804-2.264-1.612-3.674c1.903-13.99,3.85-27.975,5.865-41.949
		c0.429-2.973,4.24-4.339,5.915-1.952c1.048,1.494,1.18,1.544,2.68,0.802c8.653-4.283,16.588-2.719,20.155,3.797
		c3.94,7.197,0.811,18.192-6.651,22.841C301.854,557.014,295.458,557.206,288.758,551.833z M298.523,550.039
		c6.507,0.107,11.405-4.94,11.496-11.848c0.068-5.21-3.12-8.567-8.229-8.665c-6.418-0.122-11.367,5.055-11.425,11.949
		C290.32,546.85,293.274,549.952,298.523,550.039z"/>
	<path fill-rule="evenodd" clip-rule="evenodd" fill="#C5302D" d="M208.148,520.221c0.096,7.062-4.423,12.895-11.362,14.491
		c-1.606,0.369-3.299,0.45-4.957,0.495c-10.169,0.271-10.163,0.255-11.316,10.219c-0.249,2.148-0.812,4.292-0.794,6.435
		c0.03,3.755-2.492,3.163-4.782,3.153c-3.042-0.012-1.863-2.167-1.675-3.56c1.71-12.697,3.511-25.382,5.267-38.072
		c0.333-2.402,1.14-3.865,4.083-3.69c5.312,0.313,10.675-0.096,15.965,0.38C204.736,510.625,208.07,514.491,208.148,520.221z
		 M188.459,529.862c1.968-0.235,3.977-0.296,5.895-0.742c4.837-1.125,7.205-4.102,6.802-8.355c-0.452-4.774-4.229-5.264-7.697-5.322
		c-10.501-0.18-8.247-1.773-9.978,8.557C182.771,528.234,183.063,531.022,188.459,529.862z"/>
	<path fill-rule="evenodd" clip-rule="evenodd" fill="#C5302D" d="M687.442,542.109c-2.991-0.002-5.989,0.119-8.974-0.032
		c-3.934-0.199-3.681,1.777-2.353,4.284c2.39,4.511,9.061,5.645,13.947,2c2.273-1.695,3.992-2.48,5.692,0.142
		c1.837,2.835-1.308,3.355-2.586,4.263c-3.782,2.683-8.165,3.624-12.79,3.058c-6.548-0.803-10.782-5.282-11.342-11.878
		c-1.028-12.129,9.07-21.634,21.043-19.806c7.077,1.081,12.082,9.859,9.536,16.454c-0.695,1.803-1.947,1.486-3.199,1.504
		C693.427,542.139,690.435,542.111,687.442,542.109z M684.998,537.105c1.332,0,2.692,0.175,3.987-0.045
		c1.59-0.27,4.063,1.223,4.545-1.528c0.439-2.507-0.923-4.503-3.096-5.805c-3.585-2.147-9.555-0.597-12.481,3.277
		c-0.768,1.015-2.035,2.151-1.189,3.523c0.67,1.086,2.13,0.516,3.242,0.561C681.668,537.157,683.334,537.106,684.998,537.105z"/>
	<path fill-rule="evenodd" clip-rule="evenodd" fill="#C5302D" d="M88.435,542.105c-2.99-0.002-5.983,0.092-8.968-0.026
		c-3.498-0.14-3.516,1.58-2.327,4.03c1.865,3.842,7.182,5.535,11.694,3.645c1.203-0.505,2.45-1.176,3.343-2.095
		c1.898-1.953,3.18-0.83,4.55,0.568c2.051,2.096-0.158,2.901-1.273,3.819c-5.409,4.452-14.124,5.184-19.644,1.755
		c-4.94-3.067-6.842-9.311-5.001-16.419c1.909-7.369,8.268-12.804,15.605-13.338c9.863-0.718,15.267,4.605,14.58,14.201
		c-0.195,2.718-0.836,4.315-4.095,3.93C94.113,541.846,91.258,542.107,88.435,542.105z M86.049,537.103
		c1.822,0,3.655-0.132,5.463,0.026c4.275,0.373,3.821-2.009,2.653-4.584c-2.275-5.01-9.771-5.111-14.381-0.249
		c-1.023,1.079-2.427,2.311-2.038,3.767c0.514,1.925,2.502,0.85,3.835,1.003C83.053,537.235,84.559,537.104,86.049,537.103z"/>
	<path fill-rule="evenodd" clip-rule="evenodd" fill="#C5302D" d="M604.729,542.11c-2.832-0.001-5.668,0.104-8.494-0.025
		c-4.335-0.197-3.855,2.078-2.391,4.648c2.046,3.591,7.766,4.857,12.044,2.754c1.034-0.508,2.055-1.167,2.873-1.97
		c2.087-2.049,3.352-0.292,4.513,1.001c1.646,1.832-0.354,2.619-1.372,3.469c-5.369,4.483-14.167,5.268-19.692,1.84
		c-4.801-2.979-6.903-9.065-5.329-15.426c2.036-8.227,8.199-13.785,15.908-14.351c9.777-0.718,15.2,4.65,14.69,14.242
		c-0.161,3.022-1.261,4.11-4.258,3.867C610.408,541.931,607.562,542.11,604.729,542.11z M602.739,537.107
		c1.498,0,2.999,0.058,4.493-0.018c1.268-0.063,2.961,0.585,3.641-0.815c0.768-1.583,0.058-3.287-0.896-4.705
		c-2.578-3.833-9.145-3.766-13.271,0.179c-1.285,1.229-3.19,2.664-2.473,4.499c0.705,1.804,2.958,0.652,4.515,0.83
		C600.063,537.226,601.407,537.107,602.739,537.107z"/>
	<path fill-rule="evenodd" clip-rule="evenodd" fill="#C5302D" d="M227.293,524.09c8.785-0.078,13.646,5.484,12.877,14.419
		c-0.225,2.606-0.967,3.784-3.869,3.668c-5.809-0.231-11.632-0.09-17.45-0.053c-1.099,0.007-2.522-0.469-3.129,0.855
		c-0.605,1.32,0.08,2.587,0.816,3.732c2.693,4.19,8.797,4.961,13.765,1.804c1.071-0.682,1.838-2.375,3.286-1.816
		c1.138,0.438,2.41,1.46,2.854,2.539c0.623,1.513-1.088,2.203-2.077,2.973c-5.622,4.381-14.152,4.981-19.677,1.443
		c-4.459-2.855-6.513-8.883-5.138-15.074c1.729-7.78,7.898-13.651,15.252-14.478C225.624,524.01,226.463,524.09,227.293,524.09z
		 M224.936,537.105c1.826,0,3.669-0.16,5.475,0.032c4.041,0.432,4.093-1.598,2.887-4.444c-1.999-4.718-8.992-5.345-13.628-1.169
		c-1.452,1.308-3.466,2.907-2.736,4.876c0.575,1.549,2.952,0.522,4.519,0.681C222.602,537.197,223.773,537.103,224.936,537.105z"/>
	<path fill-rule="evenodd" clip-rule="evenodd" fill="#C5302D" d="M464.871,542.112c-3.164,0.005-6.33,0.056-9.493-0.01
		c-3.175-0.065-3.181,1.605-2.218,3.849c1.583,3.688,6.729,5.57,11.159,3.995c1.232-0.438,2.582-0.99,3.457-1.896
		c2.117-2.192,3.918-1.565,5.289,0.518c1.622,2.466-1.068,3.134-2.315,4.022c-6.022,4.293-14.497,4.479-19.7,0.639
		c-4.186-3.089-5.912-9.257-4.32-15.434c1.923-7.467,8.206-13.063,15.418-13.73c9.79-0.908,15.706,4.549,15.097,13.836
		c-0.187,2.837-0.838,4.735-4.386,4.274C470.237,541.833,467.536,542.108,464.871,542.112z M462.144,537.108
		c1.49,0,2.999,0.14,4.468-0.039c1.479-0.181,3.713,1.035,4.214-1.287c0.425-1.973-0.469-3.913-2.052-5.337
		c-3.444-3.096-10.173-1.775-13.617,2.686c-0.693,0.897-1.791,1.858-1.41,3.021c0.562,1.714,2.248,0.805,3.431,0.916
		C458.818,537.223,460.486,537.107,462.144,537.108z"/>
	<path fill-rule="evenodd" clip-rule="evenodd" fill="#C5302D" d="M354.396,542.107c-2.663-0.002-5.332,0.105-7.989-0.026
		c-4.319-0.215-3.89,2.071-2.434,4.65c2.376,4.208,8.798,4.939,13.746,1.751c1.063-0.685,1.812-2.403,3.29-1.772
		c1.136,0.485,2.433,1.522,2.815,2.611c0.512,1.449-1.188,2.171-2.182,2.942c-5.635,4.367-14.276,4.918-19.697,1.32
		c-4.753-3.154-6.539-9.222-4.742-16.111c1.925-7.386,8.316-12.883,15.607-13.425c9.988-0.742,15.558,4.903,14.7,14.68
		c-0.218,2.486-1.013,3.576-3.629,3.425C360.729,541.969,357.559,542.109,354.396,542.107z M352.508,537.108
		c1.489,0,2.996,0.145,4.462-0.041c1.47-0.186,3.643,1.023,4.219-1.264c0.513-2.034-0.494-3.898-2.049-5.31
		c-3.197-2.903-9.319-2.025-12.966,1.824c-1.029,1.087-2.371,2.345-1.979,3.795c0.536,1.986,2.527,0.763,3.854,0.946
		C349.508,537.262,351.019,537.106,352.508,537.108z"/>
	<path fill-rule="evenodd" clip-rule="evenodd" fill="#C5302D" d="M277.65,537.701c0.002,9.668-8.959,18.37-18.784,18.241
		c-8.074-0.106-13.88-5.914-13.891-13.893c-0.013-9.973,8.445-18.109,18.733-18.021C271.99,524.1,277.648,529.648,277.65,537.701z
		 M260.04,550.044c6.422-0.104,11.314-5.487,11.135-12.25c-0.137-5.136-3.512-8.354-8.654-8.251
		c-6.345,0.127-11.343,5.65-11.164,12.338C251.495,547.035,254.788,550.13,260.04,550.044z"/>
	<path fill-rule="evenodd" clip-rule="evenodd" fill="#C5302D" d="M124.166,552.67c-3.046,1.692-6.041,3.474-9.747,3.286
		c-4.089-0.207-7.81-1.277-9.019-5.626c-1.221-4.391,0.161-8.281,4.02-10.938c4.15-2.857,8.98-3.215,13.832-3.507
		c1.44-0.086,3.675,1.043,4.074-1.494c0.38-2.421-0.918-4.309-3.158-5.091c-3.143-1.097-6.333-0.648-9.083,1.192
		c-2.025,1.355-3.596,1.665-4.866-0.7c-1.452-2.706,1.201-3.013,2.524-3.745c3.281-1.816,6.926-2.191,10.643-2.019
		c7.582,0.351,10.79,4.229,9.69,11.695c-0.799,5.429-1.521,10.87-2.313,16.3c-0.154,1.054,0.398,2.711-1.227,2.833
		c-1.59,0.119-3.783,1.249-4.551-1.477c0.025-0.425,0.053-0.85,0.08-1.273C124.765,552.294,124.465,552.483,124.166,552.67z
		 M123.204,540.531c-3.087,0.348-6.301,0.299-9.151,1.918c-2.058,1.169-3.289,2.876-2.782,5.328c0.498,2.41,2.46,2.884,4.556,3.062
		c4.682,0.396,8.646-2.127,10.117-6.431C126.813,541.866,126.673,540.055,123.204,540.531z"/>
	<path fill-rule="evenodd" clip-rule="evenodd" fill="#C5302D" d="M497.994,524.039c9.177-0.026,12.33,3.637,10.984,12.69
		c-0.781,5.258-1.503,10.524-2.238,15.789c-0.155,1.111,0.096,2.555-1.666,2.446c-1.216-0.074-3.21,0.784-3.467-0.838
		c-0.456-2.866-1.439-1.702-2.726-0.798c-2.367,1.663-4.993,2.619-7.917,2.599c-4.264-0.028-8.026-1.127-9.58-5.599
		c-1.391-4.002,0.61-8.749,4.542-11.209c4.093-2.561,8.729-2.968,13.413-3.236c1.448-0.084,3.707,1.039,4.098-1.461
		c0.371-2.372-0.891-4.325-3.14-5.114c-3.136-1.101-6.306-0.657-9.079,1.164c-1.983,1.302-3.594,1.721-4.886-0.685
		c-1.461-2.721,1.207-3.015,2.52-3.746C491.648,524.482,494.768,523.894,497.994,524.039z M499.436,540.52
		c-3.238,0.375-6.615,0.287-9.573,2.078c-1.876,1.136-2.749,2.792-2.484,5.013c0.207,1.746,1.38,2.531,2.896,3.002
		c4.832,1.499,10.471-1.594,11.818-6.481C502.728,541.828,502.608,540.078,499.436,540.52z"/>
	<path fill-rule="evenodd" clip-rule="evenodd" fill="#C5302D" d="M767.316,524.034c2.382-0.105,4.719,0.224,6.666,1.624
		c1.214,0.873,3.502,1.929,1.985,3.75c-1.14,1.368-2.714,3.729-5.385,1.845c-0.925-0.652-2.008-1.271-3.097-1.464
		c-2.78-0.493-5.851-0.255-6.527,2.912c-0.65,3.044,2.412,3.426,4.62,4.06c1.277,0.367,2.591,0.625,3.848,1.053
		c6.178,2.106,7.922,7.796,4.027,13.042c-4.074,5.488-15.203,6.913-20.368,2.522c-1.142-0.97-3.294-2.174-1.291-3.908
		c1.33-1.15,2.679-3.977,5.293-1.43c2.581,2.516,5.731,2.391,8.876,1.406c1.471-0.46,2.65-1.493,2.651-3.249
		c0.001-1.757-1.103-2.724-2.668-3.173c-1.596-0.459-3.269-0.681-4.828-1.231c-2.969-1.049-6.219-1.927-6.841-5.732
		c-0.692-4.237,1.068-7.486,4.483-9.855C761.312,524.436,764.249,523.908,767.316,524.034z"/>
	<path fill-rule="evenodd" clip-rule="evenodd" fill="#C5302D" d="M635.041,547.001c3.571-6.904,6.795-12.525,9.413-18.415
		c1.715-3.858,4.077-4.767,8.338-3.339c-5.043,9.459-10.056,18.757-14.95,28.116c-1.295,2.477-3.426,1.371-5.255,1.648
		c-2.372,0.361-2.685-1.479-3.106-3.043c-2.078-7.696-4.188-15.388-6.05-23.138c-0.288-1.199-2.428-3.427,0.455-4.015
		c2.387-0.487,5.354-1.182,6.193,2.813c1.125,5.362,2.581,10.656,3.908,15.976C634.174,544.352,634.441,545.08,635.041,547.001z"/>
	<path fill-rule="evenodd" clip-rule="evenodd" fill="#C5302D" d="M331.119,506.729c2.319-0.279,3.286,0.229,2.875,2.972
		c-2.092,13.956-3.987,27.941-5.852,41.93c-0.354,2.657-1.483,3.622-4.194,3.446c-3.361-0.217-2.024-2.375-1.819-3.922
		c1.763-13.331,3.542-26.659,5.482-39.965C327.893,509.257,327.194,505.956,331.119,506.729z"/>
	<path fill-rule="evenodd" clip-rule="evenodd" fill="#C5302D" d="M515.344,551.467c1.963-13.859,4.07-27.979,5.884-42.136
		c0.409-3.188,2.319-2.556,4.216-2.642c3.007-0.135,2.012,1.936,1.81,3.416c-1.912,13.979-3.93,27.944-5.756,41.935
		c-0.358,2.751-1.793,3.009-4.05,3.032C514.66,555.102,515.184,553.381,515.344,551.467z"/>
	<path fill-rule="evenodd" clip-rule="evenodd" fill="#C5302D" d="M148.482,506.736c2.469-0.407,3.217,0.573,2.853,3.05
		c-2.073,14.121-4.094,28.249-5.992,42.394c-0.378,2.821-1.997,2.891-4.167,2.876c-2.865-0.02-2.169-1.918-1.954-3.458
		c1.954-13.976,4.023-27.935,5.876-41.924C145.41,507.333,146.162,506.34,148.482,506.736z"/>
	<path fill-rule="evenodd" clip-rule="evenodd" fill="#C5302D" d="M663.763,528.134c-1.141,8.04-2.41,16.065-3.353,24.128
		c-0.352,3.007-2.135,2.75-4.178,2.776c-2.967,0.036-2.027-1.987-1.827-3.457c1.094-8.046,2.394-16.067,3.347-24.129
		c0.348-2.941,2.042-2.836,4.131-2.823C664.898,524.647,663.686,526.635,663.763,528.134z"/>
	<path fill-rule="evenodd" clip-rule="evenodd" fill="#C5302D" d="M799.932,528.033c-5.605-0.185-9.912-4.912-9.641-10.58
		c0.258-5.362,4.851-9.7,10.182-9.616c5.575,0.088,10.038,4.786,9.889,10.408C810.21,523.958,805.666,528.222,799.932,528.033z
		 M800.527,525.907c4.27-0.101,7.937-3.825,7.892-8.015c-0.049-4.473-3.964-8.075-8.522-7.841c-4.416,0.228-7.666,3.786-7.515,8.229
		C792.53,522.638,796.132,526.01,800.527,525.907z"/>
	<path fill-rule="evenodd" clip-rule="evenodd" fill="#C5302D" d="M376.546,555.524c-2.334-0.274-3.889-1.407-3.88-3.772
		c0.011-2.904,1.746-4.685,4.558-4.925c2.551-0.218,4.182,1.352,4.076,3.887C381.181,553.575,379.2,555.028,376.546,555.524z"/>
	<path fill-rule="evenodd" clip-rule="evenodd" fill="#C5302D" d="M790.276,550.724c-0.516,2.727-2.033,4.651-4.884,4.705
		c-2.516,0.047-4.087-1.627-3.792-4.157c0.322-2.766,2.162-4.498,5.033-4.479C789.016,546.809,790.037,548.482,790.276,550.724z"/>
	<path fill-rule="evenodd" clip-rule="evenodd" fill="#C5302D" d="M663.395,509.665c2.364,0.266,3.792,1.575,3.621,3.865
		c-0.206,2.764-1.845,4.595-4.759,4.655c-2.609,0.055-4.029-1.563-3.794-4.062C658.729,511.308,660.601,509.837,663.395,509.665z"/>
	<path fill-rule="evenodd" clip-rule="evenodd" fill="#FFFFFF" d="M339.475,224.071c0.109-10.626-0.639-21.304,1.839-31.79
		c4.421-18.709,21.216-31.959,40.495-32.511c16.772-0.48,30.155,5.419,39.531,19.575c3.964,5.985,5.652,12.773,5.973,19.824
		c0.317,6.986,0.128,13.995,0.177,20.994c0.009,1.335-0.036,2.822,1.531,3.349c1.38,0.464,2.103-0.787,2.86-1.593
		c8.187-8.701,18.599-12.827,30.17-13.742c8.04-0.635,15.918,1.178,23.067,5.132c2.719,1.504,5.094,1.598,8.02,0.611
		c28.957-9.765,55.662-5.119,80.143,12.931c4.301,3.171,7.965,7.049,11.257,11.266c0.888,1.138,1.585,2.902,3.425,2.252
		c1.465-0.518,1.202-2.167,1.452-3.464c2.364-12.314,6.221-23.763,16.946-31.708c10.985-8.138,22.839-9.4,35.418-4.956
		c7.992,2.823,15.8,6.166,23.702,9.243c1.635,0.637,3.565,2.477,5.008,0.875c1.543-1.713-0.73-3.222-1.631-4.656
		c-17.248-27.466-34.614-54.858-51.766-82.384c-7.896-12.671-5.52-30.417,4.853-41.585c7.853-8.456,17.965-13.105,28.334-17.245
		c20.965-8.372,42.608-14.459,65.318-14.363c16.193,0.068,28.615,7.662,35.788,22.775c2.127,4.482,2.543,9.322,2.866,14.071
		c1.452,21.369,3.333,42.706,4.332,64.111c0.464,9.939,1.85,19.842,1.867,29.824c0.003,1.339-0.086,2.911,1.377,3.473
		c1.692,0.65,2.159-1.024,2.933-2.05c5.604-7.431,11.48-14.672,16.79-22.307c12.812-18.42,38.394-21.938,56.44-5.803
		c17.904,16.008,30.987,35.558,39.321,58.118c5.411,14.647,2.942,28.17-7.272,40.009c-6.388,7.403-15.274,10.302-24.437,12.51
		c-5.005,1.206-9.987,2.512-14.968,3.817c-1.226,0.321-2.943,0.364-2.781,2.202c0.121,1.371,1.612,1.523,2.67,1.888
		c9.122,3.143,18.288,6.161,27.382,9.385c20.901,7.41,28.563,29.959,21.15,48.789c-9.604,24.391-25.663,44.302-47.032,59.437
		c-18.471,13.082-42.23,7.282-53.991-12.163c-4.217-6.971-8.767-13.74-13.172-20.598c-0.612-0.953-1.052-2.519-2.374-2.23
		c-1.768,0.383-1.146,2.164-1.156,3.389c-0.077,8.813-0.455,17.613-0.758,26.42c-0.652,18.971-16.527,35.38-35.54,35.642
		c-18.899,0.262-36.479-5.431-53.196-13.448c-7.921-3.798-15.589-5.823-24.326-5.538c-9.966,0.325-19.655,0.378-29.378,3.956
		c-8.35,3.074-17.356,1.592-25.823-1.875c-7.043-2.883-13.682-3.476-20.354,2.072c-16.215,13.486-35.324,18.787-56.192,17.747
		c-4.99-0.248-6.435,1.001-6.491,6.211c-0.293,27.397-22.97,42.071-42.686,42.266c-24.499,0.242-45.966-18.58-45.25-45.284
		c0.13-4.829,0.021-9.665-0.008-14.498c-0.009-1.471,0.384-3.299-1.237-4.039c-1.771-0.809-2.676,0.984-3.591,2.027
		c-6.398,7.289-14.479,11.487-23.854,13.619c-21.882,4.976-44.503-8.177-50.947-29.73c-0.354-1.184,0.128-2.955-1.633-3.303
		c-1.545-0.307-2.338,1.025-3.15,2.064c-10.894,13.944-25.64,21.784-42.175,26.975c-12.208,3.832-24.668,5.034-37.386,4.889
		c-36.49-0.416-66.101-21.588-78.079-56.053c-1.144-3.291-2.006-6.682-3.083-9.998c-0.339-1.046-0.486-2.534-1.979-2.532
		c-1.466,0.003-1.631,1.397-1.984,2.497c-4.272,13.302-8.572,26.596-12.824,39.904c-5.215,16.322-10.046,32.73-21.39,46.32
		c-8.902,10.666-20.37,16.133-33.553,19.028c-16.1,3.537-31.953,3.783-47.284-3.156c-17.211-7.791-25.765-22.394-25.484-38.45
		c0.333-18.949,10.052-32.227,27.955-39.182c5.879-2.285,5.997-2.727,3.068-8.66c-15.48-31.358-31.23-62.588-46.339-94.125
		c-7.797-16.274-8.062-33.086,2.118-48.564c15.291-23.249,47.812-26.629,67.744-7.554c2.663,2.549,4.575,5.726,6.297,8.95
		c4.471,8.371,8.76,16.84,13.242,25.205c0.968,1.807,1.213,5.014,3.651,4.825c2.776-0.216,2.438-3.573,3.076-5.635
		c2.454-7.947,4.597-15.982,8.59-23.373c7.146-13.226,17.324-22.175,32.885-23.661c17.346-1.656,31.208,4.648,41.548,18.556
		c4.104,5.521,3.782,5.513,8.974,1.021c11.222-9.71,24.402-15.234,38.915-17.983c22.51-4.263,44.345-2.975,65.02,7.673
		c10.831,5.578,19.608,13.66,26.714,23.544c0.867,1.207,1.578,3.21,3.112,2.836c2.163-0.526,1.138-2.813,1.166-4.313
		C339.547,236.071,339.479,230.07,339.475,224.071z M705.673,274.93c0.24-0.303,0.481-0.607,0.722-0.91
		c4.401-9.725,2.328-18.55-5.649-21.856c-22.272-9.231-44.62-18.287-67.012-27.227c-7.501-2.995-13.491-0.106-16.363,7.461
		c-1.174,3.094-1.985,6.324-2.962,9.493c-1.165,0.681-1.077,2.001-1.525,3.039c-3.082,7.135-3.363,14.835-4.032,22.371
		c-1.089,12.257-1.237,24.573,2.668,36.476c2.176,6.631,7.421,9.502,14.127,7.448c23.147-7.091,46.241-14.365,69.309-21.717
		c6.272-2,9.014-6.923,9.517-13.261l0.061-0.272l0.273-0.052c0.33-0.106,0.538-0.329,0.623-0.665l0.002-0.254L705.673,274.93z
		 M602.494,371.829c-0.655-0.735-1.132-0.236-1.5,0.283c-2.775,3.932-2.886,8.063-0.422,12.093c2.335,3.819,7.418,5.384,11.84,3.848
		c4.619-1.604,6.869-5.067,6.953-9.824c0.082-4.655-3.211-8.516-7.837-9.614c-4.306-1.023-7.327,0.094-9.165,3.383L602.494,371.829z
		 M848.265,335.622c2.131-4.309,4.604-8.485,6.321-12.953c3.197-8.326,0.652-14.101-7.676-16.946
		c-22.479-7.681-45.026-15.167-67.599-22.573c-6.734-2.21-12.43,0.252-16.334,6.195c-2.133,3.247-2.436,6.815-2.476,10.499
		c-4.657,3.202-5.625,9.336-1.902,15.341c12.497,20.161,24.443,40.667,37.642,60.389c4.933,7.371,10.194,8.342,17.778,3.524
		c9.746-6.191,16.553-15.231,23.321-24.245C841.781,348.938,846.755,343.237,848.265,335.622z M757.188,237.948
		c-0.96,3.261-2.248,6.439-3.279,9.626c-1.288,3.977-1.026,8.244,1.767,12.3c4.626,6.72,10.981,7.145,17.648,5.442
		c21.809-5.572,43.883-10.063,65.525-16.309c7.976-2.302,10.175-4.622,10.571-12.666c4.6-4.163,5.721-9.275,3.629-14.956
		c-6.725-18.265-17.24-34.113-31.581-47.218c-7.165-6.548-13.784-5.686-19.564,1.982c-10.513,13.947-20.858,28.023-31.114,42.161
		C766.115,224.752,760.625,230.645,757.188,237.948z M730.35,392.864c2.969-2.732,4.209-6.033,4.355-10.146
		c0.859-24.109,0.413-48.225,0.571-72.336c0.038-5.795-3.567-10.391-9.141-12.394c-5.998-2.155-11.966-0.972-15.933,3.698
		c-15.501,18.254-30.878,36.614-46.311,54.928c-2.471,2.932-3.709,6.256-3.396,10.113c-6.122,8.145-5.711,13.275,2.426,19.146
		c15.921,11.486,34.215,17.084,53.363,19.882C724.504,406.956,729.836,401.511,730.35,392.864z M638.411,108.883
		c-4.722,4.876-5.354,8.526-1.977,14.081c5.682,9.349,11.504,18.613,17.329,27.875c12.262,19.499,24.29,39.154,36.971,58.378
		c5.903,8.95,10.543,18.873,18.695,26.269c3.99,3.62,8.261,5.485,13.539,3.065c5.039-2.311,7.659-6.161,7.35-11.816
		c5.463-5.625,6.258-12.67,5.79-19.957c-2.524-39.351-5.122-78.698-7.73-118.043c-0.565-8.529-4.801-12.492-13.465-12.689
		c-7.706-0.175-15.251,1.091-22.725,2.818c-15.42,3.563-30.622,7.792-44.681,15.313C641.675,97.296,637.817,101.739,638.411,108.883
		z M485.618,385.999c3.629,2.37,6.928,4.928,10.566,6.838c27.78,14.582,65.397,0.336,75.95-29.873
		c9.721-27.826,9.85-56.724,3.247-85.254c-7.572-32.717-39.526-50.286-71.846-40.611c-6.466,1.936-12.175,5.313-17.651,9.162
		c-2.476,1.74-4.277,2.5-5.494-1.706c-1.774-6.136-6.437-9.527-12.803-10.371c-12.233-1.62-20.284,5.645-20.294,18.519
		c-0.04,57.82-0.019,115.642-0.014,173.462c0,1.165-0.006,2.338,0.112,3.494c1.159,11.379,10.582,18.402,21.859,16.316
		c9.495-1.756,14.112-7.574,14.402-19.156c0.258-10.321,0.061-20.658-0.146-30.984C483.44,392.417,483.928,389.278,485.618,385.999z
		 M276.192,330.751c0-0.091,0-0.183,0.001-0.274c12.652,0,25.318,0.356,37.954-0.117c9.52-0.355,11.832-3.139,12.316-12.643
		c0.646-12.696-0.166-25.346-3.149-37.694c-4.82-19.958-16.15-34.479-36.315-40.891c-9.002-2.862-18.312-3.083-27.679-2.602
		c-30.198,1.554-49.679,16.03-57.25,44.513c-6.417,24.139-6.955,48.777-0.417,73.079c4.732,17.586,14.024,32.586,31.693,39.406
		c27.246,10.517,53.287,6.779,77.128-10.191c5.484-3.904,9.491-9.336,11.175-16.117c1.675-6.746-0.924-14.146-6.206-17.762
		c-5.655-3.873-11.435-3.469-17.937,1.347c-1.87,1.386-3.612,2.944-5.397,4.442c-5.822,4.893-12.364,8.406-19.744,10.309
		c-19.258,4.963-36.597-7.59-37.468-27.121c-0.273-6.127,1.193-7.677,7.32-7.682C253.542,330.746,264.868,330.751,276.192,330.751z
		 M117.21,333.679c-1.189-1.937-2.03-3.153-2.719-4.451c-14.277-26.914-28.553-53.83-42.792-80.764
		c-4.532-8.573-11.283-12.155-19.426-10.15c-9.782,2.408-15.538,9.758-15.326,19.463c0.101,4.602,1.462,8.849,3.461,12.914
		c15.499,31.519,31.097,62.99,46.479,94.564c3.78,7.76,8.62,15.104,10.669,23.605c2.302,9.553-3.619,17.018-13.398,17.248
		c-3.162,0.074-6.333-0.242-9.493-0.157c-9.796,0.265-16.998,7.408-16.965,16.702c0.024,6.792,4.23,12.487,11.622,15.285
		c11.119,4.209,22.306,2.709,33.426-0.047c7.596-1.883,13.505-6.263,17.923-12.716c4.954-7.237,7.95-15.353,10.587-23.612
		c12.305-38.523,24.67-77.028,36.762-115.619c3.077-9.821,7.339-19.361,8.553-29.686c1.143-9.724-3.218-16.37-11.753-18.879
		c-9.598-2.821-15.825-0.114-20.726,8.918c-1.599,2.947-2.783,6.033-3.723,9.24c-5.802,19.804-11.613,39.605-17.453,59.398
		C121.138,320.965,119.258,326.965,117.21,333.679z M401.743,292.881c0-26.815,0.024-53.631-0.025-80.446
		c-0.008-4.322-0.124-8.667-0.589-12.959c-0.86-7.951-6.047-12.886-14.005-13.74c-13.047-1.4-21.333,6.266-21.344,20.019
		c-0.044,57.462-0.026,114.924,0.008,172.386c0.001,2.316,0.321,4.645,0.629,6.949c0.658,4.945,3.26,8.66,7.497,11.204
		c6.269,3.765,12.699,3.687,19.007,0.249c6.349-3.46,8.827-9.201,8.826-16.22C401.74,351.176,401.744,322.029,401.743,292.881z"/>
	<path fill-rule="evenodd" clip-rule="evenodd" fill="#E3E1E0" d="M800.527,525.907c-4.396,0.104-7.997-3.269-8.146-7.626
		c-0.151-4.443,3.099-8.002,7.515-8.229c4.559-0.234,8.474,3.368,8.522,7.841C808.464,522.082,804.797,525.806,800.527,525.907z
		 M799.311,519.179c2.313,1.212,2.266,4.301,5.634,4.231c-1.426-2.424-2.616-4.355-0.34-6.449c1.077-0.99,0.454-2.666-0.499-3.634
		c-1.704-1.729-4.018-1.355-6.151-1.188c-1.551,0.122-1.571,1.443-1.569,2.644c0.002,2.164-0.014,4.327,0.012,6.49
		c0.01,0.811-0.09,1.879,0.961,2.023c1.473,0.203,1.317-1.052,1.455-2.002C798.9,520.686,799.091,520.091,799.311,519.179z"/>
	<path fill-rule="evenodd" clip-rule="evenodd" fill="#090909" d="M485.618,385.999c-1.69,3.279-2.178,6.419-2.109,9.836
		c0.206,10.326,0.403,20.663,0.146,30.984c-0.29,11.582-4.907,17.4-14.402,19.156c-11.277,2.086-20.7-4.938-21.859-16.316
		c-0.118-1.156-0.112-2.329-0.112-3.494c-0.005-57.82-0.026-115.642,0.014-173.462c0.01-12.875,8.061-20.139,20.294-18.519
		c6.366,0.843,11.028,4.235,12.803,10.371c1.217,4.207,3.019,3.446,5.494,1.706c5.477-3.849,11.186-7.226,17.651-9.162
		c32.319-9.675,64.273,7.894,71.846,40.611c6.603,28.53,6.474,57.428-3.247,85.254c-10.553,30.209-48.17,44.455-75.95,29.873
		C492.546,390.926,489.247,388.369,485.618,385.999z M501.206,316.963c0.1,10.611,0.07,20.949,3.919,30.813
		c4.291,10.997,13.015,16.754,25.318,16.537c12.498-0.221,20.047-5.673,24.092-17.21c2.287-6.522,3.201-13.278,3.524-20.104
		c0.702-14.832,1.155-29.683-3.816-44.019c-2.728-7.867-7.677-14.137-16.104-15.576c-13.571-2.317-29.177,1.511-33.675,19.636
		C501.994,296.998,501.297,307.075,501.206,316.963z"/>
	<path fill-rule="evenodd" clip-rule="evenodd" fill="#090909" d="M276.192,330.751c-11.325,0-22.65-0.006-33.975,0.002
		c-6.127,0.005-7.594,1.555-7.32,7.682c0.871,19.531,18.21,32.084,37.468,27.121c7.38-1.902,13.922-5.416,19.744-10.309
		c1.785-1.498,3.527-3.057,5.397-4.442c6.502-4.815,12.281-5.22,17.937-1.347c5.282,3.615,7.881,11.016,6.206,17.762
		c-1.684,6.781-5.69,12.213-11.175,16.117c-23.841,16.971-49.882,20.708-77.128,10.191c-17.669-6.82-26.961-21.82-31.693-39.406
		c-6.539-24.301-6-48.94,0.417-73.079c7.571-28.483,27.052-42.959,57.25-44.513c9.367-0.482,18.677-0.261,27.679,2.602
		c20.165,6.413,31.495,20.934,36.315,40.891c2.983,12.348,3.795,24.998,3.149,37.694c-0.484,9.504-2.797,12.287-12.316,12.643
		c-12.636,0.473-25.302,0.117-37.954,0.117C276.192,330.569,276.192,330.66,276.192,330.751z M257.179,302.989
		c9.162,0,18.325,0.009,27.487-0.008c1.769-0.003,3.842,0.48,3.914-2.424c0.347-14.027-6.116-28.437-21.627-31.822
		c-7.079-1.545-14.031-0.98-20.654,1.373c-12.445,4.422-19.233,13.69-21.117,26.668c-0.62,4.267,0.502,6.504,5.513,6.31
		C239.511,302.743,248.35,302.989,257.179,302.989z"/>
	<path fill-rule="evenodd" clip-rule="evenodd" fill="#090909" d="M117.21,333.679c2.048-6.714,3.928-12.714,5.708-18.744
		c5.84-19.793,11.65-39.594,17.453-59.398c0.94-3.207,2.124-6.293,3.723-9.24c4.901-9.032,11.128-11.739,20.726-8.918
		c8.536,2.509,12.896,9.155,11.753,18.879c-1.213,10.325-5.476,19.865-8.553,29.686c-12.092,38.59-24.457,77.095-36.762,115.619
		c-2.638,8.26-5.634,16.375-10.587,23.612c-4.417,6.453-10.327,10.833-17.923,12.716c-11.12,2.756-22.307,4.256-33.426,0.047
		c-7.392-2.798-11.598-8.493-11.622-15.285c-0.033-9.294,7.168-16.438,16.965-16.702c3.161-0.085,6.332,0.231,9.493,0.157
		c9.78-0.23,15.701-7.695,13.398-17.248c-2.049-8.501-6.889-15.846-10.669-23.605c-15.383-31.574-30.981-63.045-46.479-94.564
		c-1.999-4.065-3.361-8.312-3.461-12.914c-0.212-9.705,5.544-17.055,15.326-19.463c8.143-2.004,14.894,1.577,19.426,10.15
		c14.24,26.935,28.515,53.85,42.792,80.764C115.18,330.526,116.021,331.743,117.21,333.679z"/>
	<path fill-rule="evenodd" clip-rule="evenodd" fill="#C32427" d="M638.411,108.883c-0.594-7.144,3.264-11.587,9.097-14.707
		c14.059-7.521,29.261-11.75,44.681-15.313c7.474-1.727,15.019-2.993,22.725-2.818c8.664,0.197,12.899,4.161,13.465,12.689
		c2.608,39.346,5.206,78.692,7.73,118.043c0.468,7.287-0.327,14.332-5.79,19.957c-8.824,3.478-13.534,2.407-19.751-4.853
		c-2.15-2.511-3.974-5.328-5.749-8.129C682.661,178.809,660.541,143.843,638.411,108.883z"/>
	<path fill-rule="evenodd" clip-rule="evenodd" fill="#090909" d="M401.743,292.881c0.001,29.147-0.003,58.295,0.004,87.442
		c0.001,7.019-2.478,12.76-8.826,16.22c-6.308,3.438-12.738,3.516-19.007-0.249c-4.237-2.544-6.839-6.259-7.497-11.204
		c-0.308-2.305-0.628-4.633-0.629-6.949c-0.034-57.462-0.052-114.924-0.008-172.386c0.011-13.753,8.297-21.419,21.344-20.019
		c7.958,0.854,13.145,5.79,14.005,13.74c0.465,4.292,0.581,8.637,0.589,12.959C401.768,239.25,401.743,266.066,401.743,292.881z"/>
	<path fill-rule="evenodd" clip-rule="evenodd" fill="#C32427" d="M660.497,366.727c-0.313-3.857,0.925-7.182,3.396-10.113
		c15.433-18.314,30.81-36.674,46.311-54.928c3.967-4.67,9.935-5.854,15.933-3.698c5.573,2.002,9.179,6.599,9.141,12.394
		c-0.158,24.112,0.288,48.227-0.571,72.336c-0.146,4.113-1.387,7.414-4.355,10.146c-4.289,2.316-8.895,2.646-13.553,1.801
		c-16.316-2.964-31.729-8.473-46.099-16.797C666.146,375.231,662.357,371.85,660.497,366.727z"/>
	<path fill-rule="evenodd" clip-rule="evenodd" fill="#C32427" d="M757.188,237.948c3.438-7.303,8.928-13.196,13.602-19.639
		c10.256-14.138,20.602-28.213,31.114-42.161c5.78-7.667,12.399-8.53,19.564-1.982c14.341,13.105,24.856,28.953,31.581,47.218
		c2.092,5.681,0.971,10.793-3.629,14.956c-2.521,0.821-5.003,1.798-7.569,2.438c-20.764,5.178-41.76,9.572-62.237,15.7
		C767.619,258.068,756.093,251.485,757.188,237.948z"/>
	<path fill-rule="evenodd" clip-rule="evenodd" fill="#C32427" d="M614.408,241.891c0.977-3.168,1.788-6.399,2.962-9.493
		c2.872-7.568,8.862-10.456,16.363-7.461c22.392,8.94,44.739,17.995,67.012,27.227c7.978,3.307,10.051,12.132,5.649,21.855
		c-0.24,0.303-0.48,0.607-0.722,0.911l-0.243,0.073c0,0-0.002,0.254-0.002,0.253c-0.207,0.221-0.415,0.444-0.623,0.666l-0.273,0.052
		c0,0-0.061,0.272-0.061,0.272c-7.507,4.094-15.873,5.785-23.893,8.413c-16.412,5.378-32.888,10.573-49.412,15.597
		c-8.044,2.446-13.147-0.442-15.896-8.356c-1.207-3.474-1.602-7.107-2.041-10.742C611.638,268.003,613.172,254.954,614.408,241.891z
		"/>
	<path fill-rule="evenodd" clip-rule="evenodd" fill="#C32427" d="M760.502,299.843c0.04-3.684,0.343-7.251,2.476-10.499
		c3.904-5.943,9.6-8.405,16.334-6.195c22.572,7.406,45.12,14.892,67.599,22.573c8.328,2.846,10.873,8.62,7.676,16.946
		c-1.717,4.468-4.19,8.645-6.321,12.953c-1.101,1.438-2.232,2.853-3.294,4.318c-7.624,10.526-15.493,20.87-26.33,28.355
		c-7.336,5.065-13.396,3.818-18.279-3.537c-4.686-7.057-9.221-14.221-13.6-21.471C778.015,328.802,768.507,314.776,760.502,299.843z
		"/>
	<path fill-rule="evenodd" clip-rule="evenodd" fill="#E3E1E0" d="M638.411,108.883c22.13,34.96,44.25,69.926,66.407,104.87
		c1.775,2.801,3.599,5.618,5.749,8.129c6.217,7.26,10.927,8.331,19.751,4.853c0.31,5.655-2.311,9.505-7.35,11.816
		c-5.278,2.42-9.549,0.554-13.539-3.065c-8.152-7.396-12.792-17.318-18.695-26.269c-12.681-19.224-24.709-38.879-36.971-58.378
		c-5.825-9.262-11.647-18.526-17.329-27.875C633.058,117.409,633.689,113.759,638.411,108.883z"/>
	<path fill-rule="evenodd" clip-rule="evenodd" fill="#E3E1E0" d="M614.408,241.891c-1.236,13.063-2.771,26.112-1.18,39.267
		c0.439,3.635,0.834,7.268,2.041,10.742c2.749,7.914,7.853,10.802,15.896,8.356c16.524-5.024,33-10.218,49.412-15.597
		c8.02-2.628,16.386-4.319,23.893-8.413c-0.503,6.338-3.244,11.262-9.517,13.262c-23.067,7.352-46.161,14.625-69.309,21.717
		c-6.706,2.054-11.951-0.816-14.127-7.448c-3.905-11.903-3.757-24.219-2.668-36.476c0.669-7.536,0.95-15.235,4.032-22.371
		C613.331,243.893,613.243,242.572,614.408,241.891z"/>
	<path fill-rule="evenodd" clip-rule="evenodd" fill="#E3E1E0" d="M760.502,299.843c8.005,14.933,17.513,28.959,26.26,43.445
		c4.379,7.25,8.914,14.414,13.6,21.471c4.884,7.355,10.943,8.603,18.279,3.537c10.837-7.485,18.706-17.829,26.33-28.355
		c1.062-1.466,2.193-2.881,3.294-4.318c-1.51,7.615-6.483,13.316-10.924,19.23c-6.769,9.014-13.575,18.054-23.321,24.245
		c-7.584,4.817-12.846,3.847-17.778-3.524c-13.198-19.723-25.145-40.229-37.642-60.389
		C754.877,309.179,755.845,303.044,760.502,299.843z"/>
	<path fill-rule="evenodd" clip-rule="evenodd" fill="#E3E1E0" d="M757.188,237.948c-1.095,13.538,10.432,20.121,22.426,16.531
		c20.478-6.128,41.474-10.522,62.237-15.7c2.566-0.64,5.049-1.617,7.569-2.438c-0.396,8.044-2.596,10.364-10.571,12.666
		c-21.643,6.246-43.717,10.737-65.525,16.309c-6.667,1.703-13.022,1.278-17.648-5.442c-2.793-4.057-3.055-8.324-1.767-12.3
		C754.939,244.387,756.228,241.208,757.188,237.948z"/>
	<path fill-rule="evenodd" clip-rule="evenodd" fill="#E3E1E0" d="M660.497,366.727c1.86,5.123,5.649,8.504,10.201,11.141
		c14.369,8.324,29.782,13.833,46.099,16.797c4.658,0.846,9.264,0.516,13.553-1.801c-0.514,8.647-5.846,14.092-14.063,12.892
		c-19.148-2.798-37.442-8.396-53.363-19.882C654.786,380.002,654.375,374.872,660.497,366.727z"/>
	<path fill-rule="evenodd" clip-rule="evenodd" fill="#090909" d="M602.366,371.999c1.835-3.291,4.856-4.408,9.162-3.385
		c4.626,1.099,7.919,4.959,7.837,9.614c-0.084,4.757-2.334,8.221-6.953,9.824c-4.422,1.536-9.505-0.028-11.84-3.848
		c-2.464-4.03-2.354-8.161,0.422-12.093c0.368-0.52,0.845-1.019,1.499-0.285c0.012,0.365,0.025,0.73,0.038,1.096
		c-2.81,4.083-2.94,8.14,0.773,11.631c3.071,2.889,6.656,3.537,10.327,0.788c4.645-3.626,5.335-9.401,1.393-13.059
		C610.965,368.517,606.645,369.543,602.366,371.999z"/>
	<path fill-rule="evenodd" clip-rule="evenodd" fill="#E3E1E0" d="M704.805,275.922c0.208-0.222,0.416-0.445,0.623-0.666
		C705.343,275.594,705.135,275.816,704.805,275.922z"/>
	<path fill-rule="evenodd" clip-rule="evenodd" fill="#E3E1E0" d="M705.673,274.93c0.241-0.304,0.481-0.608,0.722-0.911
		C706.154,274.323,705.913,274.627,705.673,274.93z"/>
	<path fill-rule="evenodd" clip-rule="evenodd" fill="#C5302D" d="M799.311,519.179c-0.22,0.912-0.41,1.507-0.498,2.116
		c-0.138,0.95,0.018,2.205-1.455,2.002c-1.051-0.145-0.951-1.213-0.961-2.023c-0.025-2.163-0.01-4.326-0.012-6.49
		c-0.002-1.2,0.019-2.521,1.569-2.644c2.134-0.168,4.447-0.542,6.151,1.188c0.953,0.968,1.576,2.644,0.499,3.634
		c-2.276,2.094-1.086,4.025,0.34,6.449C801.576,523.48,801.623,520.391,799.311,519.179z"/>
	<path fill-rule="evenodd" clip-rule="evenodd" fill="#E3E1E0" d="M613.632,385.342c-3.671,2.748-7.256,2.1-10.327-0.789
		c-3.714-3.491-3.583-7.548-0.773-11.631c0.972-0.003,1.944-0.006,2.916-0.008c0,3.598,0,7.193,0,11.048
		c2.742-0.992,0.327-4.307,2.813-4.356c1.816-0.037,2.058,2.287,3.046,3.516c0.578,0.719,1.218,1.031,2.104,0.899
		C613.484,384.461,613.559,384.901,613.632,385.342z"/>
	<path fill-rule="evenodd" clip-rule="evenodd" fill="#C2C2C2" d="M605.447,372.915c-0.972,0.002-1.944,0.005-2.916,0.008
		c-0.013-0.365-0.026-0.73-0.038-1.096c0.001,0.002-0.13,0.17-0.128,0.171c4.279-2.454,8.6-3.48,12.659,0.285
		c3.942,3.657,3.252,9.433-1.393,13.059c-0.073-0.44-0.147-0.88-0.222-1.321c-0.457-2.207-3.662-3.99-0.292-6.818
		c1.433-1.203,0.521-3.936-2.213-4.252C609.109,372.741,607.269,372.913,605.447,372.915z"/>
	<path fill-rule="evenodd" clip-rule="evenodd" fill="#090909" d="M605.447,372.915c1.821-0.002,3.662-0.174,5.458,0.035
		c2.733,0.316,3.646,3.049,2.213,4.252c-3.37,2.828-0.165,4.611,0.292,6.818c-0.886,0.133-1.525-0.18-2.104-0.898
		c-0.988-1.229-1.229-3.553-3.046-3.516c-2.486,0.05-0.071,3.364-2.813,4.356C605.447,380.108,605.447,376.512,605.447,372.915z
		 M609.499,377.909c1.226-0.109,2.342-0.482,2.22-1.965c-0.142-1.723-1.587-1.847-2.89-1.902c-1.535-0.066-1.93,1.004-1.813,2.252
		C607.153,377.773,608.234,378.032,609.499,377.909z"/>
	<path fill-rule="evenodd" clip-rule="evenodd" fill="#C2C2C2" d="M609.499,377.903c-1.265,0.129-2.346-0.13-2.483-1.609
		c-0.116-1.248,0.278-2.318,1.813-2.252c1.303,0.056,2.748,0.18,2.89,1.902C611.841,377.426,610.725,377.799,609.499,377.903z"/>
</g>
</svg>
